inDegrees=no
num_controls=7
num_derivatives=13
num_iterations=81
num_multipliers=7
num_parameters=0
num_slacks=7
num_states=26
objective=0.510121
objective_accelerations=0.002233
objective_balance=0.002477
objective_effort=0.004186
objective_height=0.469317
objective_ligament=0.031908
solver_duration=1202.742479
status=Solve_Succeeded
success=true
DataType=double
version=3
OpenSimVersion=4.5
endheader
time	/jointset/ground_pelvis/pelvis_tilt/value	/jointset/ground_pelvis/pelvis_tx/value	/jointset/ground_pelvis/pelvis_ty/value	/jointset/hip_l/hip_flexion_l/value	/jointset/hip_l/hip_adduction_l/value	/jointset/hip_l/hip_rotation_l/value	/jointset/back/lumbar_extension/value	/jointset/patellofemoral_l/patellar_flexion_l/value	/jointset/knee_l/knee_flexion_l/value	/jointset/knee_l/knee_adduction_l/value	/jointset/knee_l/knee_rotation_l/value	/jointset/ankle_l/ankle_angle_l/value	/jointset/subtalar_l/subtalar_angle_l/value	/jointset/ground_pelvis/pelvis_tilt/speed	/jointset/ground_pelvis/pelvis_tx/speed	/jointset/ground_pelvis/pelvis_ty/speed	/jointset/hip_l/hip_flexion_l/speed	/jointset/hip_l/hip_adduction_l/speed	/jointset/hip_l/hip_rotation_l/speed	/jointset/back/lumbar_extension/speed	/jointset/patellofemoral_l/patellar_flexion_l/speed	/jointset/knee_l/knee_flexion_l/speed	/jointset/knee_l/knee_adduction_l/speed	/jointset/knee_l/knee_rotation_l/speed	/jointset/ankle_l/ankle_angle_l/speed	/jointset/subtalar_l/subtalar_angle_l/speed	/forceset/tau_hip_flexion_l	/forceset/tau_hip_adduction_l	/forceset/tau_hip_rotation_l	/forceset/tau_knee_flexion_l	/forceset/tau_ankle_angle_l	/forceset/tau_subtalar_angle_l	/forceset/tau_lumbar_extension	lambda_cid13_p0	lambda_cid13_p1	lambda_cid13_p2	lambda_cid13_p3	lambda_cid13_p4	lambda_cid13_p5	lambda_cid14_p0	/jointset/ground_pelvis/pelvis_tilt/accel	/jointset/ground_pelvis/pelvis_tx/accel	/jointset/ground_pelvis/pelvis_ty/accel	/jointset/hip_l/hip_flexion_l/accel	/jointset/hip_l/hip_adduction_l/accel	/jointset/hip_l/hip_rotation_l/accel	/jointset/back/lumbar_extension/accel	/jointset/patellofemoral_l/patellar_flexion_l/accel	/jointset/knee_l/knee_flexion_l/accel	/jointset/knee_l/knee_adduction_l/accel	/jointset/knee_l/knee_rotation_l/accel	/jointset/ankle_l/ankle_angle_l/accel	/jointset/subtalar_l/subtalar_angle_l/accel	gamma_cid13_p0	gamma_cid13_p1	gamma_cid13_p2	gamma_cid13_p3	gamma_cid13_p4	gamma_cid13_p5	gamma_cid14_p0
1.5	-0.1038918658476689	0.1131350526109087	0.8936086397439311	0.2081668480273249	-0.3203479053821447	-0.4460114803625131	-0.06461815004447205	0.06251237051757638	0.06251237051764383	-0.1678696146197501	-0.07107216834661541	-0.01626050456345554	0.03370617435837785	0.01143078680586057	-0.02292946448739082	0.001172074277506446	0.01088153120480474	0.005412445647953041	0.01251686017557386	0.1132679011509994	-0.01615619964395978	-0.01615619964395652	0.004452368174013105	0.01297955596860605	-0.03504952208774324	-0.01427815220108605	0.008316619625691727	0.04053729023346996	-0.003749251934168628	-0.09723333782611342	0.05623362404205269	-0.04916322569657769	0.02888057946963728	-19.44170920902263	20.26932122825624	1.557112182814054	1.412522835446431	-546.0779231658016	-31.09507572707835	-38.59730413468156	0.04601426546429573	-0.03195737256975849	0.002063921987550586	-0.01015059877614136	0.000517039416894856	-0.003279366197848064	-0.07297437983692789	-0.00185013761396245	-0.001850137613962198	-0.001495214893502616	-0.008683369670080862	-0.03857401623566137	-0.02114390034066536	1.551863022905059e-11	-1.070503200307065e-10	1.115798915677839e-10	-2.184015279215696e-11	4.080639613808581e-11	-2.282942492550448e-10	5.224968413986886e-12
1.51	-0.1037753537999872	0.11290423655203	0.8936204571066311	0.2082751707690721	-0.3202937595257036	-0.4458864957097802	-0.06348922247423779	0.06235073644351689	0.06235073644364321	-0.1678251635638189	-0.07094281704789049	-0.01661282938811693	0.03356238833198132	0.01186367055490005	-0.02322616130678948	0.001190876226648803	0.01078205157290425	0.00541600869630604	0.01247800582224306	0.1125051614438166	-0.01616956133769373	-0.01616956133769086	0.004436986732855812	0.01288991306254776	-0.03540605967885968	-0.01447439751438669	0.009265945835242068	0.03961312283198298	-0.003952014600246891	-0.09887078064230655	0.05842528242259933	-0.04915710124844252	0.02809259320062849	-18.74096268007739	20.196363702874	1.508892532081681	1.055340431008164	-546.0752274597843	-31.22851198562894	-38.59094460654238	0.04073260980465283	-0.02738794311386402	0.001710031960813738	-0.009991474884336141	0.0001683817859637762	-0.004498171803701679	-0.07979148383385341	-0.0009211102199556415	-0.000921110219328601	-0.00168805016681918	-0.009223335012283427	-0.03278615210999854	-0.01816651089471462	1.647343730171047e-11	-9.446438556272683e-11	1.044593485194367e-10	-1.907719185206992e-11	3.335341911699082e-11	-1.848698727686014e-10	3.727801427038088e-12
1.52	-0.1036547514788591	0.1126706811036616	0.8936324468289347	0.2083824697485582	-0.3202395995500001	-0.4457619615409594	-0.06236829584460821	0.06218900036744841	0.06218900036752777	-0.167780892010387	-0.07081438589528938	-0.01696843809298959	0.03341677951963289	0.01224884151146157	-0.02347734238534798	0.001206546198261787	0.01067677876168976	0.005415269514367081	0.01242676339281219	0.1116677130296544	-0.01617660003014091	-0.01617660003013844	0.004416467634069336	0.0127955267990307	-0.03570629813241007	-0.01464270939049207	0.01021527204471557	0.03868895543048773	-0.004154777264958521	-0.1005082234591845	0.06061694080286418	-0.04915097680049195	0.02730460693186127	-18.0402325780007	20.12333373326551	1.460770465583833	0.69994253458802	-546.0721165082263	-31.36182868552391	-38.58460111626856	0.03647170696872831	-0.02285422440179037	0.001437526481687337	-0.01130923463896342	-0.0003434066414524016	-0.005756981417878509	-0.08791612123281477	-0.0005855373566360407	-0.0005855373566360797	-0.002522746419260763	-0.009632041161847531	-0.02731418872253041	-0.01555721290160555	8.893110749932464e-12	-9.814575640790057e-11	1.01536733888287e-10	-1.834247244865105e-11	1.427650675594603e-11	-1.969610438857699e-10	2.346740572757341e-12
1.53	-0.1035305414554456	0.112434843336315	0.8936445771950081	0.2084886895837678	-0.3201854706166316	-0.4456380017424729	-0.06125611375921926	0.06202722556283476	0.06202722556299748	-0.167736856030566	-0.07068692241169636	-0.01732676611974756	0.03326962564256348	0.01258479259813294	-0.02368243137545475	0.001218973455544057	0.01056642932424393	0.005409606941919438	0.01236318549160066	0.1107563854948313	-0.01617717075527517	-0.01617717075527432	0.004389516746397205	0.01269638592311126	-0.03594967597293987	-0.0147834967247634	0.01117351392808156	0.03774929838921759	-0.004360536074572362	-0.1021687163781404	0.06284102960327916	-0.04913991160512583	0.02651218348501964	-17.32889118529192	20.04708450211261	1.412265589203728	0.3350623488845541	-546.0708499209669	-31.50028701193628	-38.57827648364015	0.03090122708329121	-0.01816928382461214	0.001062284455127721	-0.01101163853871468	-0.0008142416222968917	-0.006959833564241689	-0.09458885246334608	0.0003856807727201038	0.0003856807732140139	-0.002962993336666473	-0.01017269107340671	-0.02140489716127899	-0.0126540902520125	-7.755795277810683e-12	-1.191111391482997e-10	1.030744182004093e-10	-1.97627596779421e-11	-1.715083690379529e-11	-2.680374843317755e-10	1.089042484436398e-12
1.54	-0.1034032230377317	0.1121971880695673	0.8936568152254699	0.2085937831564737	-0.3201314256208678	-0.4455147380508103	-0.06015341450575887	0.06186548075510548	0.0618654807551677	-0.1676931259061299	-0.07056047385306038	-0.01768723898798937	0.03312120097283473	0.01287052038777745	-0.02384084226554153	0.001228079075935027	0.01045152627732068	0.005398482006479851	0.01228754202675811	0.1097711466457728	-0.0161706006458712	-0.01617060064587199	0.004355296522883786	0.01259254183661262	-0.03613526643121186	-0.01489686792152181	0.01213175581096021	0.0368096413479774	-0.004566294883570582	-0.1038292092978417	0.06506511840337294	-0.04912884640991536	0.02571976003809031	-16.61753840274294	19.97076596134608	1.363848653422795	-0.02861655818231374	-546.0689995899304	-31.63859478096358	-38.57197326755018	0.02642704756321098	-0.01351860439767844	0.0007731991034288354	-0.01221995653455879	-0.001435879239835124	-0.008170094144023044	-0.1026983840799625	0.0008426295509367135	0.0008426295509366727	-0.003976613587523158	-0.01057268327758012	-0.01575671227085891	-0.01007398539894553	-1.348965998539745e-11	-1.28543448412058e-10	1.082199892110049e-10	-2.165360772554561e-11	-1.027085503804581e-11	-2.901032166502654e-10	-1.13275471379387e-12
1.55	-0.1032733016025541	0.1119581858837444	0.8936691276594252	0.2086977006459617	-0.3200775211231104	-0.4453922917174793	-0.05906092800078003	0.06170383398169942	0.0617038339818464	-0.167649780082991	-0.07043508632704447	-0.01804927643212452	0.03297177876300698	0.01310518993995803	-0.02395143284201586	0.001233857090626435	0.0103307732512111	0.005381349792178474	0.01219971040945184	0.1087145606339929	-0.0161577494626651	-0.01615774946266593	0.004312239515704685	0.01248428465049963	-0.03626224810644412	-0.01498299576625609	0.01309113209528088	0.03585735209940898	-0.004773717189819027	-0.1055029915472423	0.06731000680759575	-0.04911003352752208	0.02492977228673642	-15.89917234165846	19.89042339140452	1.315423590499553	-0.4014645324996611	-546.0698918814703	-31.78346148452986	-38.56569449145677	0.02070040475110813	-0.008604980003921061	0.0003975228017779746	-0.01218272782393981	-0.002012076039068507	-0.009391851885652959	-0.1088777671312534	0.001657049989888678	0.00165704999058216	-0.004714530230170894	-0.01105401917343705	-0.009672751470081543	-0.007195437353614886	-6.647498824109064e-12	-1.24687651278818e-10	1.175224731567977e-10	-2.408662367250911e-11	4.074582797663629e-11	-2.557000896044468e-10	-4.465361756050037e-12
